<mxfile host="app.diagrams.net" modified="2022-04-19T11:06:01.874Z" agent="5.0 (Windows NT 10.0; Win64; x64) AppleWebKit/537.36 (KHTML, like Gecko) Chrome/100.0.4896.88 Safari/537.36" etag="Wx3CVh4k_h1miLmTqvdS" version="17.4.5" type="github">
  <diagram id="aJ3Z_3YMU40hQEJG-7Bw" name="Page-1">
    <mxGraphModel dx="538" dy="463" grid="1" gridSize="10" guides="1" tooltips="1" connect="1" arrows="1" fold="1" page="1" pageScale="1" pageWidth="850" pageHeight="1100" math="0" shadow="0">
      <root>
        <mxCell id="0" />
        <mxCell id="1" parent="0" />
        <mxCell id="WOctoKnjsvAi4l6RxHl_-1" value="&lt;span style=&quot;font-size: 40px&quot;&gt;ENGLISH&lt;br&gt;&lt;br&gt;&lt;/span&gt;" style="text;html=1;align=center;verticalAlign=middle;resizable=0;points=[];autosize=1;strokeColor=none;fillColor=none;" vertex="1" parent="1">
          <mxGeometry x="255" y="140" width="190" height="50" as="geometry" />
        </mxCell>
        <mxCell id="WOctoKnjsvAi4l6RxHl_-2" value="RONGLISH&lt;br&gt;RONGLEZA" style="text;html=1;align=center;verticalAlign=middle;resizable=0;points=[];autosize=1;strokeColor=none;fillColor=none;fontSize=40;" vertex="1" parent="1">
          <mxGeometry x="230" y="220" width="240" height="100" as="geometry" />
        </mxCell>
        <mxCell id="WOctoKnjsvAi4l6RxHl_-3" value="ROMANIAN" style="text;html=1;align=center;verticalAlign=middle;resizable=0;points=[];autosize=1;strokeColor=none;fillColor=none;fontSize=40;" vertex="1" parent="1">
          <mxGeometry x="240" y="372" width="230" height="50" as="geometry" />
        </mxCell>
        <mxCell id="WOctoKnjsvAi4l6RxHl_-4" value="" style="endArrow=classic;startArrow=classic;html=1;fontSize=40;curved=1;exitX=0.05;exitY=-0.049;exitDx=0;exitDy=0;exitPerimeter=0;entryX=0.005;entryY=0.397;entryDx=0;entryDy=0;entryPerimeter=0;" edge="1" parent="1" source="WOctoKnjsvAi4l6RxHl_-3" target="WOctoKnjsvAi4l6RxHl_-1">
          <mxGeometry width="50" height="50" relative="1" as="geometry">
            <mxPoint x="230" y="420" as="sourcePoint" />
            <mxPoint x="230" y="130" as="targetPoint" />
            <Array as="points">
              <mxPoint x="180" y="280" />
            </Array>
          </mxGeometry>
        </mxCell>
        <mxCell id="WOctoKnjsvAi4l6RxHl_-5" value="&lt;font color=&quot;#069968&quot;&gt;&lt;font style=&quot;font-size: 15px&quot;&gt;PURITY&amp;amp;&lt;/font&gt;&lt;br&gt;&lt;/font&gt;" style="text;html=1;align=center;verticalAlign=middle;resizable=0;points=[];autosize=1;strokeColor=none;fillColor=none;fontSize=40;" vertex="1" parent="1">
          <mxGeometry x="282" y="152" width="80" height="60" as="geometry" />
        </mxCell>
        <mxCell id="WOctoKnjsvAi4l6RxHl_-11" value="DEPTH" style="text;html=1;align=center;verticalAlign=middle;resizable=0;points=[];autosize=1;strokeColor=none;fillColor=none;fontSize=15;fontColor=#069968;" vertex="1" parent="1">
          <mxGeometry x="287" y="192" width="70" height="20" as="geometry" />
        </mxCell>
        <mxCell id="WOctoKnjsvAi4l6RxHl_-12" value="" style="endArrow=classic;html=1;fontSize=15;fontColor=#069968;curved=1;exitX=0.127;exitY=-0.021;exitDx=0;exitDy=0;exitPerimeter=0;strokeColor=#069968;entryX=-0.004;entryY=0.238;entryDx=0;entryDy=0;entryPerimeter=0;" edge="1" parent="1" source="WOctoKnjsvAi4l6RxHl_-2" target="WOctoKnjsvAi4l6RxHl_-5">
          <mxGeometry width="50" height="50" relative="1" as="geometry">
            <mxPoint x="430" y="340" as="sourcePoint" />
            <mxPoint x="300" y="160" as="targetPoint" />
            <Array as="points">
              <mxPoint x="260" y="200" />
            </Array>
          </mxGeometry>
        </mxCell>
        <mxCell id="WOctoKnjsvAi4l6RxHl_-13" value="&lt;font color=&quot;#069968&quot;&gt;&lt;font style=&quot;font-size: 15px&quot;&gt;PURITY&amp;amp;&lt;/font&gt;&lt;br&gt;&lt;/font&gt;" style="text;html=1;align=center;verticalAlign=middle;resizable=0;points=[];autosize=1;strokeColor=none;fillColor=none;fontSize=40;" vertex="1" parent="1">
          <mxGeometry x="277" y="298" width="80" height="60" as="geometry" />
        </mxCell>
        <mxCell id="WOctoKnjsvAi4l6RxHl_-14" value="DEPTH" style="text;html=1;align=center;verticalAlign=middle;resizable=0;points=[];autosize=1;strokeColor=none;fillColor=none;fontSize=15;fontColor=#069968;" vertex="1" parent="1">
          <mxGeometry x="282" y="339" width="70" height="20" as="geometry" />
        </mxCell>
        <mxCell id="WOctoKnjsvAi4l6RxHl_-15" value="" style="endArrow=classic;html=1;fontSize=15;fontColor=#069968;strokeColor=#069968;curved=1;exitX=0.13;exitY=1.031;exitDx=0;exitDy=0;exitPerimeter=0;entryX=0.01;entryY=1.075;entryDx=0;entryDy=0;entryPerimeter=0;" edge="1" parent="1" source="WOctoKnjsvAi4l6RxHl_-2" target="WOctoKnjsvAi4l6RxHl_-13">
          <mxGeometry width="50" height="50" relative="1" as="geometry">
            <mxPoint x="430" y="340" as="sourcePoint" />
            <mxPoint x="480" y="290" as="targetPoint" />
            <Array as="points">
              <mxPoint x="260" y="340" />
            </Array>
          </mxGeometry>
        </mxCell>
      </root>
    </mxGraphModel>
  </diagram>
</mxfile>
